<?xml version="1.0" standalone="no"?>
<!DOCTYPE svg PUBLIC "-//W3C//DTD SVG 1.1//EN" "http://www.w3.org/Graphics/SVG/1.1/DTD/svg11.dtd">
<!--Generator: Xara Xtreme (www.xara.com), SVG filter version: 1.0.0.13-->
<svg stroke-width="0.501" stroke-linejoin="bevel" fill-rule="evenodd" xmlns:xlink="http://www.w3.org/1999/xlink" xmlns="http://www.w3.org/2000/svg" version="1.1" overflow="visible" width="100%" height="100%" viewBox="50 100 400 400">
 <defs>
  <marker id="DefaultArrow2" markerUnits="strokeWidth" viewBox="0 0 1 1" markerWidth="1" markerHeight="1" overflow="visible" orient="auto">
   <!-- REF_ARROW_STRAIGHT (-2) -->
   <g transform="scale(0.0092592592)">
    <!-- 1/108 -->
    <path d="M -9 54 L -9 -54 L 117 0 z"/>
   </g>
  </marker>
  <marker id="DefaultArrow3" markerUnits="strokeWidth" viewBox="0 0 1 1" markerWidth="1" markerHeight="1" overflow="visible" orient="auto">
   <!-- REF_ARROW_ANGLED -->
   <g transform="scale(0.0092592592)">
    <path d="M -27 54 L -9 0 L -27 -54 L 135 0 z"/>
   </g>
  </marker>
  <marker id="DefaultArrow4" markerUnits="strokeWidth" viewBox="0 0 1 1" markerWidth="1" markerHeight="1" overflow="visible" orient="auto">
   <!-- REF_ARROW_ROUNDED -->
   <g transform="scale(0.0092592592)">
    <path d="M -9,0 L -9,-45 C -9,-51.708 2.808,-56.580 9,-54 L 117,-9 C 120.916,-7.369 126.000,-4.242 126,0 C 126,4.242 120.916,7.369 117,9 L 9,54 C 2.808,56.580 -9,51.708 -9,45 z"/>
   </g>
  </marker>
  <marker id="DefaultArrow5" markerUnits="strokeWidth" viewBox="0 0 1 1" markerWidth="1" markerHeight="1" overflow="visible" orient="auto">
   <!-- REF_ARROW_SPOT -->
   <g transform="scale(0.0092592592)">
    <path d="M -54, 0 C -54,29.807 -29.807,54 0,54 C 29.807,54 54,29.807 54,0 C 54,-29.807 29.807,-54 0,-54 C -29.807,-54 -54,-29.807 -54,0 z"/>
   </g>
  </marker>
  <marker id="DefaultArrow6" markerUnits="strokeWidth" viewBox="0 0 1 1" markerWidth="1" markerHeight="1" overflow="visible" orient="auto">
   <!-- REF_ARROW_DIAMOND -->
   <g transform="scale(0.0092592592)">
    <path d="M -63,0 L 0,63 L 63,0 L 0,-63 z"/>
   </g>
  </marker>
  <marker id="DefaultArrow7" markerUnits="strokeWidth" viewBox="0 0 1 1" markerWidth="1" markerHeight="1" overflow="visible" orient="auto">
   <!-- REF_ARROW_FEATHER -->
   <g transform="scale(0.0092592592)">
    <path d="M 18,-54 L 108,-54 L 63,0 L 108,54 L 18, 54 L -36,0 z"/>
   </g>
  </marker>
  <marker id="DefaultArrow8" markerUnits="strokeWidth" viewBox="0 0 1 1" markerWidth="1" markerHeight="1" overflow="visible" orient="auto">
   <!-- REF_ARROW_FEATHER2 -->
   <g transform="scale(0.0092592592)">
    <path d="M -36,0 L 18,-54 L 54,-54 L 18,-18 L 27,-18 L 63,-54 L 99,-54 L 63,-18 L 72,-18 L 108,-54 L 144,-54 L 90,0 L 144,54 L 108,54 L 72,18 L 63,18 L 99,54 L 63,54 L 27,18 L 18,18 L 54,54 L 18,54 z"/>
   </g>
  </marker>
  <marker id="DefaultArrow9" markerUnits="strokeWidth" viewBox="0 0 1 1" markerWidth="1" markerHeight="1" overflow="visible" orient="auto">
   <!-- REF_ARROW_HOLLOWDIAMOND -->
   <g transform="scale(0.0092592592)">
    <path d="M 0,45 L -45,0 L 0, -45 L 45, 0 z M 0, 63 L-63, 0 L 0, -63 L 63, 0 z"/>
   </g>
  </marker>
  <filter id="StainedFilter">
   <feBlend mode="multiply" in2="BackgroundImage" in="SourceGraphic" result="blend"/>
   <feComposite in="blend" in2="SourceAlpha" operator="in" result="comp"/>
  </filter>
  <filter id="BleachFilter">
   <feBlend mode="screen" in2="BackgroundImage" in="SourceGraphic" result="blend"/>
   <feComposite in="blend" in2="SourceAlpha" operator="in" result="comp"/>
  </filter>
  <filter id="InvertTransparencyBitmapFilter">
   <feComponentTransfer>
    <feFuncR type="gamma" amplitude="1.055" exponent=".416666666" offset="-0.055"/>
    <feFuncG type="gamma" amplitude="1.055" exponent=".416666666" offset="-0.055"/>
    <feFuncB type="gamma" amplitude="1.055" exponent=".416666666" offset="-0.055"/>
   </feComponentTransfer>
   <feComponentTransfer>
    <feFuncR type="linear" slope="-1" intercept="1"/>
    <feFuncG type="linear" slope="-1" intercept="1"/>
    <feFuncB type="linear" slope="-1" intercept="1"/>
    <feFuncA type="linear" slope="1" intercept="0"/>
   </feComponentTransfer>
   <feComponentTransfer>
    <feFuncR type="gamma" amplitude="1" exponent="2.4" offset="0"/>
    <feFuncG type="gamma" amplitude="1" exponent="2.4" offset="0"/>
    <feFuncB type="gamma" amplitude="1" exponent="2.4" offset="0"/>
   </feComponentTransfer>
  </filter>
 </defs>
 <g id="Document" fill="none" stroke="black" font-family="Times New Roman" font-size="16" transform="scale(1 -1)">
  <g id="Spread" transform="translate(0 -792)">
   <g id="Layer 1">
    <text xml:space="preserve" transform="translate(55.844 671.047) scale(1 -1)" font-size="6.858" font-family="Delugia Nerd Font" stroke="none" stroke-width="0.171" stroke-miterlimit="79.8403193612775"><tspan x="0" y="0" fill="#000000">                         </tspan><tspan x="100.45" y="0" fill="#0003ff">         _________</tspan><tspan x="0" y="9.06" fill="#0003ff">                                 | _____  o|</tspan><tspan x="0" y="18.12" fill="#000000">                                 </tspan><tspan x="132.594" y="18.12" fill="#0003ff">|[_-_]_   |</tspan><tspan x="0" y="27.18" fill="#000000">    </tspan><tspan x="16.072" y="27.18" fill="#7f81ff">  ______________________ </tspan><tspan x="116.522" y="27.18" fill="#000000"> </tspan><tspan x="120.54" y="27.18" fill="#0003ff">   |[_______]| </tspan><tspan x="180.81" y="27.18" fill="#000000">      </tspan><tspan x="204.918" y="27.18" fill="#2f82ec">global</tspan><tspan x="229.026" y="27.18" fill="#000000"> </tspan><tspan x="233.044" y="27.18" fill="#7f81ff">_main</tspan><tspan x="253.134" y="27.18" fill="#000000">               </tspan><tspan x="313.404" y="27.18" fill="#cccccc">|</tspan><tspan x="317.422" y="27.18" fill="#000000">   </tspan><tspan x="329.476" y="27.18" fill="#7f81ff">org</tspan><tspan x="341.53" y="27.18" fill="#000000"> </tspan><tspan x="345.548" y="27.18" fill="#2f82ec">100h</tspan><tspan x="361.62" y="27.18" fill="#000000">    </tspan><tspan x="0" y="36.24" fill="#000000">     </tspan><tspan x="20.09" y="36.24" fill="#7f81ff">|.--------------------.|</tspan><tspan x="116.522" y="36.24" fill="#000000">   </tspan><tspan x="128.576" y="36.24" fill="#0003ff"> |[_______]| </tspan><tspan x="180.81" y="36.24" fill="#000000">      </tspan><tspan x="204.918" y="36.24" fill="#2f82ec">extern</tspan><tspan x="229.026" y="36.24" fill="#000000"> </tspan><tspan x="233.044" y="36.24" fill="#7f81ff">_printf</tspan><tspan x="261.17" y="36.24" fill="#000000">             </tspan><tspan x="313.404" y="36.24" fill="#cccccc">|</tspan><tspan x="0" y="45.3" fill="#000000">     </tspan><tspan x="20.09" y="45.3" fill="#7f81ff">||                    ||</tspan><tspan x="116.522" y="45.3" fill="#000000">  </tspan><tspan x="124.558" y="45.3" fill="#0003ff">  |[====o]  |</tspan><tspan x="176.792" y="45.3" fill="#000000">                                  </tspan><tspan x="313.404" y="45.3" fill="#cccccc">|</tspan><tspan x="317.422" y="45.3" fill="#000000">   </tspan><tspan x="329.476" y="45.3" fill="#ff7f7f">mov</tspan><tspan x="341.53" y="45.3" fill="#000000"> </tspan><tspan x="345.548" y="45.3" fill="#ff8200">dx</tspan><tspan x="353.584" y="45.3" fill="#000000">, </tspan><tspan x="361.62" y="45.3" fill="#7f81ff">msg</tspan><tspan x="0" y="54.36" fill="#000000">     </tspan><tspan x="20.09" y="54.36" fill="#7f81ff">||</tspan><tspan x="28.126" y="54.36" fill="#000000">  Hello world!      </tspan><tspan x="108.486" y="54.36" fill="#7f81ff">||</tspan><tspan x="116.522" y="54.36" fill="#000000">    </tspan><tspan x="132.594" y="54.36" fill="#0003ff">|[_______]|</tspan><tspan x="176.792" y="54.36" fill="#000000">       </tspan><tspan x="204.918" y="54.36" fill="#7f81ff">section .text</tspan><tspan x="257.152" y="54.36" fill="#000000">              </tspan><tspan x="313.404" y="54.36" fill="#cccccc">|</tspan><tspan x="317.422" y="54.36" fill="#000000">   </tspan><tspan x="329.476" y="54.36" fill="#ff7f7f">mov</tspan><tspan x="341.53" y="54.36" fill="#000000"> </tspan><tspan x="345.548" y="54.36" fill="#ff8200">ah</tspan><tspan x="353.584" y="54.36" fill="#000000">, </tspan><tspan x="361.62" y="54.36" fill="#2f82ec">9</tspan><tspan x="0" y="63.42" fill="#000000">     </tspan><tspan x="20.09" y="63.42" fill="#7f81ff">||</tspan><tspan x="28.126" y="63.42" fill="#000000">  C:\_              </tspan><tspan x="108.486" y="63.42" fill="#7f81ff">||</tspan><tspan x="116.522" y="63.42" fill="#000000">    </tspan><tspan x="132.594" y="63.42" fill="#0003ff">|        :|</tspan><tspan x="176.792" y="63.42" fill="#000000">   </tspan><tspan x="188.846" y="63.42" fill="#00bf02">_main</tspan><tspan x="208.936" y="63.42" fill="#000000">:                         </tspan><tspan x="313.404" y="63.42" fill="#cccccc">|</tspan><tspan x="317.422" y="63.42" fill="#000000">   </tspan><tspan x="329.476" y="63.42" fill="#ff7f7f">int</tspan><tspan x="341.53" y="63.42" fill="#000000"> </tspan><tspan x="345.548" y="63.42" fill="#2f82ec">21h</tspan><tspan x="0" y="72.48" fill="#000000">     </tspan><tspan x="20.09" y="72.48" fill="#7f81ff">||____________________||</tspan><tspan x="116.522" y="72.48" fill="#000000">    </tspan><tspan x="132.594" y="72.48" fill="#0003ff">|        :|</tspan><tspan x="176.792" y="72.48" fill="#000000">       </tspan><tspan x="204.918" y="72.48" fill="#ff7f7f">push</tspan><tspan x="220.99" y="72.48" fill="#000000"> </tspan><tspan x="225.008" y="72.48" fill="#7f81ff">message</tspan><tspan x="253.134" y="72.48" fill="#000000">               </tspan><tspan x="313.404" y="72.48" fill="#cccccc">|</tspan><tspan x="317.422" y="72.48" fill="#000000">   </tspan><tspan x="0" y="81.54" fill="#000000"> </tspan><tspan x="4.018" y="81.54" fill="#999999">.==.</tspan><tspan x="20.09" y="81.54" fill="#7f81ff">|""      ......        |</tspan><tspan x="116.522" y="81.54" fill="#b2b2b2">.==.</tspan><tspan x="132.594" y="81.54" fill="#0003ff">|        :|</tspan><tspan x="176.792" y="81.54" fill="#000000">       </tspan><tspan x="204.918" y="81.54" fill="#ff7f7f">call</tspan><tspan x="220.99" y="81.54" fill="#000000"> </tspan><tspan x="225.008" y="81.54" fill="#7f81ff">_printf</tspan><tspan x="253.134" y="81.54" fill="#000000">               </tspan><tspan x="313.404" y="81.54" fill="#cccccc">|</tspan><tspan x="317.422" y="81.54" fill="#000000">   </tspan><tspan x="329.476" y="81.54" fill="#ff7f7f">mov</tspan><tspan x="341.53" y="81.54" fill="#000000"> </tspan><tspan x="345.548" y="81.54" fill="#ff8200">ah</tspan><tspan x="353.584" y="81.54" fill="#000000">, </tspan><tspan x="361.62" y="81.54" fill="#2f82ec">4Ch</tspan><tspan x="0" y="90.6" fill="#000000"> </tspan><tspan x="4.018" y="90.6" fill="#b2b2b2">|::|</tspan><tspan x="20.09" y="90.6" fill="#000000"> </tspan><tspan x="24.108" y="90.6" fill="#7f81ff">'-.________________.-'</tspan><tspan x="112.504" y="90.6" fill="#000000"> </tspan><tspan x="116.522" y="90.6" fill="#b2b2b2">|::|</tspan><tspan x="132.594" y="90.6" fill="#0003ff">|        :|</tspan><tspan x="176.792" y="90.6" fill="#000000">       </tspan><tspan x="204.918" y="90.6" fill="#ff7f7f">add</tspan><tspan x="216.972" y="90.6" fill="#ff0000"> </tspan><tspan x="220.99" y="90.6" fill="#ff8200">esp</tspan><tspan x="233.044" y="90.6" fill="#000000">, </tspan><tspan x="241.08" y="90.6" fill="#2f82ec">4</tspan><tspan x="245.098" y="90.6" fill="#000000">                 </tspan><tspan x="313.404" y="90.6" fill="#cccccc">|</tspan><tspan x="317.422" y="90.6" fill="#000000">   </tspan><tspan x="329.476" y="90.6" fill="#ff7f7f">int</tspan><tspan x="341.53" y="90.6" fill="#000000"> </tspan><tspan x="345.548" y="90.6" fill="#2f82ec">21h</tspan><tspan x="0" y="99.66" fill="#000000"> </tspan><tspan x="4.018" y="99.66" fill="#b2b2b2">|''|</tspan><tspan x="20.09" y="99.66" fill="#000000">  </tspan><tspan x="28.126" y="99.66" fill="#7f81ff">(__________________)</tspan><tspan x="108.486" y="99.66" fill="#b2b2b2">-.|''|</tspan><tspan x="132.594" y="99.66" fill="#0003ff">|________:|</tspan><tspan x="176.792" y="99.66" fill="#000000">       </tspan><tspan x="204.918" y="99.66" fill="#ff7f7f">ret</tspan><tspan x="216.972" y="99.66" fill="#000000">                        </tspan><tspan x="313.404" y="99.66" fill="#cccccc">|</tspan><tspan x="0" y="108.72" fill="#000000"> </tspan><tspan x="4.018" y="108.72" fill="#b2b2b2">`""`</tspan><tspan x="20.09" y="108.72" fill="#2f82ec">_.....................</tspan><tspan x="108.486" y="108.72" fill="#2f82ec">..</tspan><tspan x="116.522" y="108.72" fill="#2f82ec">_</tspan><tspan x="120.54" y="108.72" fill="#b2b2b2">""`</tspan><tspan x="132.594" y="108.72" fill="#00017f">_______</tspan><tspan x="160.72" y="108.72" fill="#000000">       </tspan><tspan x="188.846" y="108.72" fill="#00bf02">message</tspan><tspan x="216.972" y="108.72" fill="#000000">:                       </tspan><tspan x="313.404" y="108.72" fill="#cccccc">|</tspan><tspan x="317.422" y="108.72" fill="#000000">   </tspan><tspan x="329.476" y="108.72" fill="#7f81ff">msg</tspan><tspan x="341.53" y="108.72" fill="#000000"> </tspan><tspan x="345.548" y="108.72" fill="#000140">db</tspan><tspan x="353.584" y="108.72" fill="#000000"> '</tspan><tspan x="361.62" y="108.72" fill="#ff8200">Hello world!</tspan><tspan x="409.836" y="108.72" fill="#000000">', </tspan><tspan x="421.89" y="108.72" fill="#2f82ec">0Dh</tspan><tspan x="433.944" y="108.72" fill="#000000">, </tspan><tspan x="441.98" y="108.72" fill="#2f82ec">0Ah</tspan><tspan x="454.034" y="108.72" fill="#000000">, '</tspan><tspan x="466.088" y="108.72" fill="#ff8200">$</tspan><tspan x="470.106" y="108.72" fill="#000000">' </tspan><tspan x="0" y="117.78" fill="#000000">    </tspan><tspan x="16.072" y="117.78" fill="#2f82ec">/::::::::::::::::::::'':::\</tspan><tspan x="124.558" y="117.78" fill="#000000">`</tspan><tspan x="128.576" y="117.78" fill="#00017f">|</tspan><tspan x="132.594" y="117.78" fill="#7f81ff">'-.-.</tspan><tspan x="152.684" y="117.78" fill="#000000">  </tspan><tspan x="160.72" y="117.78" fill="#00017f">`\</tspan><tspan x="168.756" y="117.78" fill="#000000">         </tspan><tspan x="204.918" y="117.78" fill="#000140">db</tspan><tspan x="212.954" y="117.78" fill="#000000"> '</tspan><tspan x="220.99" y="117.78" fill="#ff8200">Hello world!</tspan><tspan x="269.206" y="117.78" fill="#000000">', </tspan><tspan x="281.26" y="117.78" fill="#2f82ec">10</tspan><tspan x="289.296" y="117.78" fill="#000000">, </tspan><tspan x="297.332" y="117.78" fill="#2f82ec">0</tspan><tspan x="301.35" y="117.78" fill="#000000">   </tspan><tspan x="313.404" y="117.78" fill="#cccccc">|</tspan><tspan x="0" y="126.84" fill="#000000">   </tspan><tspan x="12.054" y="126.84" fill="#2f82ec">/::==================.:.-::"\</tspan><tspan x="128.576" y="126.84" fill="#000000"> </tspan><tspan x="132.594" y="126.84" fill="#00017f">\</tspan><tspan x="136.612" y="126.84" fill="#000000"> </tspan><tspan x="140.63" y="126.84" fill="#7f81ff">\--\</tspan><tspan x="156.702" y="126.84" fill="#000000">   </tspan><tspan x="168.756" y="126.84" fill="#00017f">\</tspan><tspan x="0" y="135.9" fill="#000000">   </tspan><tspan x="12.054" y="135.9" fill="#2f82ec">\`"""""""""""""""""""""""""`/</tspan><tspan x="128.576" y="135.9" fill="#000000">  </tspan><tspan x="136.612" y="135.9" fill="#00017f">\</tspan><tspan x="140.63" y="135.9" fill="#000000"> </tspan><tspan x="144.648" y="135.9" fill="#7f81ff">\__)</tspan><tspan x="160.72" y="135.9" fill="#000000">   </tspan><tspan x="172.774" y="135.9" fill="#00017f">\</tspan><tspan x="0" y="144.96" fill="#000000">    </tspan><tspan x="16.072" y="144.96" fill="#2f82ec">`"""""""""""""""""""""""""` </tspan><tspan x="128.576" y="144.96" fill="#000000">   </tspan><tspan x="140.63" y="144.96" fill="#00017f">'========'</tspan></text>
   </g>
  </g>
 </g>
</svg>
